<?xml version="1.0" encoding="UTF-8" standalone="no"?>
<!DOCTYPE svg PUBLIC "-//W3C//DTD SVG 1.1//EN" "http://www.w3.org/Graphics/SVG/1.1/DTD/svg11.dtd">
<!-- Created with Vectornator (http://vectornator.io/) -->
<svg height="100%" stroke-miterlimit="10" style="fill-rule:nonzero;clip-rule:evenodd;stroke-linecap:round;stroke-linejoin:round;" version="1.1" viewBox="0 0 1024 1024" width="100%" xml:space="preserve" xmlns="http://www.w3.org/2000/svg" xmlns:vectornator="http://vectornator.io" xmlns:xlink="http://www.w3.org/1999/xlink">
<defs>
<radialGradient cx="512" cy="512" gradientTransform="matrix(1 0 0 1 0 0)" gradientUnits="userSpaceOnUse" id="RadialGradient" r="395.176">
<stop offset="0" stop-color="#dcd7c9"/>
<stop offset="0" stop-color="#517886"/>
<stop offset="0.520833" stop-color="#244d61"/>
<stop offset="1" stop-color="#1c2c37"/>
</radialGradient>
</defs>
<g id="Layer-2" vectornator:layerName="Layer 2">
<path d="M209.469 116.824L814.531 116.824C865.697 116.824 907.176 158.303 907.176 209.469L907.176 814.531C907.176 865.697 865.697 907.176 814.531 907.176L209.469 907.176C158.303 907.176 116.824 865.697 116.824 814.531L116.824 209.469C116.824 158.303 158.303 116.824 209.469 116.824Z" fill="url(#RadialGradient)" fill-rule="nonzero" opacity="1" stroke="none"/>
</g>
<g id="Layer-1" vectornator:layerName="Layer 1">
<g opacity="1">
<path d="M508.626 327.937L508.626 375.932L556.058 375.932L556.058 664.682L508.626 664.682L508.626 712.608L641.83 712.608C695.272 712.608 735.402 703.07 762.208 683.923C782.977 669.088 795.721 649.029 800.407 623.727C801.769 616.373 802.451 608.576 802.451 600.336C802.451 578.04 796.672 558.726 785.184 542.473C773.695 526.219 757.181 514.258 735.567 506.599C750.884 499.281 762.525 488.74 770.524 474.955C778.523 461.169 782.505 445.281 782.505 427.241C782.505 393.712 771.129 368.731 748.323 352.393C725.517 336.054 690.678 327.937 643.874 327.937L508.626 327.937ZM613.78 375.932L651.838 375.932C675.155 375.932 693.201 380.5 705.966 389.605C718.73 398.711 725.065 412.231 725.065 430.271C725.065 468.906 700.837 488.275 652.332 488.275L613.78 488.275L613.78 375.932ZM613.78 535.989L650.781 535.989C682.437 535.989 705.845 541.239 720.907 551.706C735.969 562.173 743.46 578.004 743.46 599.278C743.46 618.34 738.852 632.613 729.576 642.059C720.301 651.505 708.228 657.646 693.421 660.454C678.614 663.262 659.732 664.682 636.756 664.682L613.78 664.682L613.78 535.989Z" fill="#966844" fill-rule="nonzero" opacity="1" stroke="#114457" stroke-linecap="butt" stroke-linejoin="round" stroke-width="0.1"/>
<path d="M492.951 311.392L492.951 359.388L540.453 359.388L540.453 648.138L492.951 648.138L492.951 696.134L626.226 696.134C679.667 696.134 719.797 686.596 746.603 667.449C773.408 648.302 786.775 620.383 786.775 583.791C786.776 561.496 781.067 542.253 769.579 525.999C758.091 509.745 741.506 497.784 719.891 490.125C735.209 482.807 746.85 472.266 754.849 458.481C762.848 444.695 766.901 428.737 766.901 410.696C766.901 377.168 755.454 352.257 732.648 335.919C709.842 319.58 675.073 311.392 628.27 311.392L492.951 311.392ZM598.105 359.388L636.163 359.388C659.48 359.388 677.526 363.955 690.291 373.061C703.055 382.166 709.461 395.757 709.461 413.797C709.461 452.431 685.162 471.731 636.656 471.731L598.105 471.731L598.105 359.388ZM598.105 519.444L635.106 519.444C666.762 519.444 690.17 524.694 705.232 535.161C720.294 545.628 727.785 561.53 727.785 582.805C727.785 601.866 723.176 616.139 713.901 625.585C704.625 635.031 692.552 641.101 677.745 643.909C662.938 646.718 644.057 648.138 621.081 648.138L598.105 648.138L598.105 519.444Z" fill="#dcd7c9" fill-rule="nonzero" opacity="1" stroke="none"/>
<path d="M515.374 327.937L515.374 375.932L467.942 375.932L467.942 664.682L515.374 664.682L515.374 712.608L382.17 712.608C328.728 712.608 288.598 703.07 261.792 683.923C241.023 669.088 228.279 649.029 223.593 623.727C222.231 616.373 221.549 608.576 221.549 600.336C221.549 578.04 227.328 558.726 238.816 542.473C250.305 526.219 266.819 514.258 288.433 506.599C273.116 499.281 261.475 488.74 253.476 474.955C245.477 461.169 241.495 445.281 241.495 427.241C241.495 393.712 252.871 368.731 275.677 352.393C298.483 336.054 333.322 327.937 380.126 327.937L515.374 327.937ZM410.22 375.932L372.162 375.932C348.845 375.932 330.799 380.5 318.034 389.605C305.27 398.711 298.935 412.231 298.935 430.271C298.935 468.906 323.163 488.275 371.668 488.275L410.22 488.275L410.22 375.932ZM410.22 535.989L373.219 535.989C341.563 535.989 318.155 541.239 303.093 551.706C288.031 562.173 280.54 578.004 280.54 599.278C280.54 618.34 285.148 632.613 294.424 642.059C303.699 651.505 315.772 657.646 330.579 660.454C345.386 663.262 364.268 664.682 387.244 664.682L410.22 664.682L410.22 535.989Z" fill="#966844" fill-rule="nonzero" opacity="1" stroke="none"/>
<path d="M531.049 311.392L531.049 359.388L483.547 359.388L483.547 648.138L531.049 648.138L531.049 696.134L397.774 696.134C344.333 696.134 304.203 686.596 277.397 667.449C250.592 648.302 237.225 620.383 237.225 583.791C237.224 561.496 242.933 542.253 254.421 525.999C265.909 509.745 282.494 497.784 304.109 490.125C288.791 482.807 277.15 472.266 269.151 458.481C261.152 444.695 257.099 428.737 257.099 410.696C257.099 377.168 268.546 352.257 291.352 335.919C314.158 319.58 348.927 311.392 395.73 311.392L531.049 311.392ZM425.895 359.388L387.837 359.388C364.52 359.388 346.474 363.955 333.709 373.061C320.945 382.166 314.539 395.757 314.539 413.797C314.539 452.431 338.838 471.731 387.344 471.731L425.895 471.731L425.895 359.388ZM425.895 519.444L388.894 519.444C357.238 519.444 333.83 524.694 318.768 535.161C303.706 545.628 296.215 561.53 296.215 582.805C296.215 601.866 300.824 616.139 310.099 625.585C319.375 635.031 331.448 641.101 346.255 643.909C361.062 646.718 379.943 648.138 402.919 648.138L425.895 648.138L425.895 519.444Z" fill="#dcd7c9" fill-rule="nonzero" opacity="1" stroke="none"/>
</g>
</g>
</svg>
